HIERARCHY
ROOT Hips
{
	OFFSET -3.958830 18.904000 13.208200
	CHANNELS 6 Xposition Yposition Zposition Zrotation Yrotation Xrotation 
	JOINT LHipJoint
	{
		OFFSET 0.000000 0.000000 0.000000
		CHANNELS 3 Zrotation Yrotation Xrotation
		JOINT LeftUpLeg
		{
			OFFSET 1.800000 -1.400000 0.085000
			CHANNELS 3 Zrotation Yrotation Xrotation
			JOINT LeftLeg
			{
				OFFSET 2.215000 -6.000000 0.000000
				CHANNELS 3 Zrotation Yrotation Xrotation
				JOINT LeftFoot
				{
					OFFSET 2.500000 -6.900000 0.000000
					CHANNELS 3 Zrotation Yrotation Xrotation
					JOINT LeftToeBase
					{
						OFFSET 0.200000 -0.500000 1.950000
						CHANNELS 3 Zrotation Yrotation Xrotation
						End Site
						{
							OFFSET 0.000000 0.000000 0.000000
						}
					}
				}
			}
		}
	}
	JOINT RHipJoint
	{
		OFFSET 0.000000 0.000000 0.000000
		CHANNELS 3 Zrotation Yrotation Xrotation
		JOINT RightUpLeg
		{
			OFFSET -1.800000 -1.400000 0.085000
			CHANNELS 3 Zrotation Yrotation Xrotation
			JOINT RightLeg
			{
				OFFSET -2.215000 -6.000000 0.000000
				CHANNELS 3 Zrotation Yrotation Xrotation
				JOINT RightFoot
				{
					OFFSET -2.500000 -6.900000 0.000000
					CHANNELS 3 Zrotation Yrotation Xrotation
					JOINT RightToeBase
					{
						OFFSET -0.200000 -0.500000 1.950000
						CHANNELS 3 Zrotation Yrotation Xrotation
						End Site
						{
							OFFSET 0.000000 0.000000 0.000000
						}
					}
				}
			}
		}
	}
	JOINT LowerBack
	{
		OFFSET 0.000000 0.000000 0.000000
		CHANNELS 3 Zrotation Yrotation Xrotation
		JOINT Spine
		{
			OFFSET -0.087000 1.940000 -0.288900
			CHANNELS 3 Zrotation Yrotation Xrotation
			JOINT Spine1
			{
				OFFSET 0.000000 1.950000 0.060000
				CHANNELS 3 Zrotation Yrotation Xrotation
				JOINT Neck
				{
					OFFSET 0.000000 0.000000 0.000000
					CHANNELS 3 Zrotation Yrotation Xrotation
					JOINT Neck1
					{
						OFFSET 0.000000 1.600000 0.340000
						CHANNELS 3 Zrotation Yrotation Xrotation
						JOINT Head
						{
							OFFSET 0.000000 1.667000 -0.240000
							CHANNELS 3 Zrotation Yrotation Xrotation
							End Site
							{
								OFFSET 0.000000 0.000000 0.000000
							}
						}
					}
				}
				JOINT LeftShoulder
				{
					OFFSET 0.000000 0.000000 0.000000
					CHANNELS 3 Zrotation Yrotation Xrotation
					JOINT LeftArm
					{
						OFFSET 2.700000 1.550000 -0.730000
						CHANNELS 3 Zrotation Yrotation Xrotation
						JOINT LeftForeArm
						{
							OFFSET 5.450000 0.000000 0.000000
							CHANNELS 3 Zrotation Yrotation Xrotation
							JOINT LeftHand
							{
								OFFSET 3.450000 0.000000 0.000000
								CHANNELS 3 Zrotation Yrotation Xrotation
								JOINT LeftHandIndex1
								{
									OFFSET 0.750000 0.000000 0.000000
									CHANNELS 3 Zrotation Yrotation Xrotation
									End Site
									{
										OFFSET 0.000000 0.000000 0.000000
									}
								}
							}
						}
					}
				}
				JOINT RightShoulder
				{
					OFFSET 0.000000 0.000000 0.000000
					CHANNELS 3 Zrotation Yrotation Xrotation
					JOINT RightArm
					{
						OFFSET -2.700000 1.550000 -0.730000
						CHANNELS 3 Zrotation Yrotation Xrotation
						JOINT RightForeArm
						{
							OFFSET -5.450000 0.000000 0.000000
							CHANNELS 3 Zrotation Yrotation Xrotation
							JOINT RightHand
							{
								OFFSET -3.450000 0.000000 0.000000
								CHANNELS 3 Zrotation Yrotation Xrotation
								JOINT RightHandIndex1
								{
									OFFSET -0.750000 0.000000 0.000000
									CHANNELS 3 Zrotation Yrotation Xrotation
									End Site
									{
										OFFSET 0.000000 0.000000 0.000000
									}
								}
							}
						}
					}
				}
			}
		}
	}
}
MOTION
Frames: 5
Frame Time: 0.016667
-2.460390 17.579970 -0.036090 -22.998736 49.831765 -22.793439 -15.633188 12.625843 1.473509 16.920516 -0.381031 -15.566703 -2.424431 6.807521 21.826609 -0.407968 4.907782 2.808230 0.434880 0.012750 0.422420 18.100786 -8.002354 5.979213 -24.311778 9.940082 -42.649138 52.796009 -44.795326 53.818318 -3.003427 -13.830784 0.057677 -0.026240 0.107770 0.200500 -4.281861 -2.616129 -9.134714 21.124715 -10.337530 48.184598 -6.042262 -3.112316 10.487360 3.234303 1.744155 -11.680856 1.272061 -8.009101 34.737164 13.779230 -10.183900 -21.621800 1.249934 -15.098175 5.808908 -1.201427 7.521591 -10.639872 66.060721 -50.844208 -30.865472 -3.197784 2.687071 0.719930 -0.147680 0.100600 0.132140 -7.824223 14.696976 6.465674 -1.747672 1.610018 -15.109180 -70.885297 51.190973 -34.090069 1.833011 -1.021505 -0.173690 0.157240 -0.085020 -0.174390 
-2.546110 17.504420 0.031680 -23.253505 51.201701 -23.682497 -15.683447 12.414857 1.524359 17.480769 -0.161418 -16.902186 -3.869871 8.019611 24.733758 -0.392779 5.500390 2.553737 0.399930 -0.014100 0.382680 18.070872 -7.880848 6.017749 -21.812456 11.922455 -42.687763 58.281615 -50.950174 55.599238 -3.236659 -14.452250 -0.052829 -0.012540 0.151680 0.208800 -4.281155 -2.335232 -9.239206 20.200983 -8.129318 48.746929 -5.463690 -1.555901 11.273589 3.301604 3.001754 -11.743192 4.174968 -8.610024 33.158135 14.882810 -10.153260 -22.585850 1.354026 -14.151005 5.793115 -6.848695 7.705417 -11.867064 78.749828 -56.348327 -44.553136 -3.126288 2.296949 0.715050 -0.108870 0.067150 0.107170 -8.082697 14.154481 6.617459 4.178986 7.333748 -15.552869 -87.460274 54.190996 -51.797978 1.752752 -0.600873 -0.205060 0.173110 -0.032490 -0.181260 
-2.639690 17.400130 0.108960 -23.108199 54.282206 -23.111322 -15.766301 12.189340 1.790809 17.141541 -0.633389 -20.603439 -5.060984 9.261164 28.576725 -0.414145 6.160584 2.296306 0.415260 0.005530 0.403450 18.010171 -7.732051 5.976189 -19.753957 12.155309 -42.829567 62.973966 -56.666436 56.292637 -3.387581 -14.693109 -0.067198 0.040250 0.196910 0.194440 -4.133642 -2.357324 -9.366231 17.495598 -5.202861 47.023954 -2.908120 -0.337935 11.724980 3.330150 4.718120 -11.443814 7.564341 -9.227721 34.120221 14.556160 -9.815550 -23.352300 -0.636980 -13.193142 5.786848 -9.817301 7.230458 -11.077508 89.307975 -62.262744 -59.368884 -3.092655 1.640192 0.750910 -0.080010 0.062310 0.114960 -5.978415 12.987196 5.739022 5.039976 15.033538 -12.391196 -103.925146 56.860679 -74.566180 1.875761 -0.250039 -0.267050 0.259520 -0.018310 -0.202920 
-2.711930 17.305400 0.182740 -22.811602 59.030411 -23.057883 -15.890841 12.102405 1.948673 15.482779 -1.126901 -23.738193 -4.114296 9.595225 31.968518 -0.490838 6.487583 2.125854 0.440320 0.028160 0.450150 17.891266 -7.623271 5.987131 -19.612364 11.539017 -41.900850 64.588313 -62.871398 59.314070 -3.498703 -14.883958 -0.111308 0.089060 0.172850 0.182150 -4.017294 -2.432959 -9.434890 15.236299 -2.691524 45.852338 -0.837793 0.590903 11.638508 3.358912 6.581466 -11.315970 11.342980 -10.959611 35.742203 14.884080 -10.059560 -25.116200 -4.214980 -13.386268 6.501353 -11.231323 6.986410 -9.410228 98.519578 -68.602209 -77.561071 -3.241337 0.847570 0.815410 -0.091750 0.081270 0.075810 -2.306061 12.823382 4.444827 7.262573 21.868846 -9.631343 -114.376883 59.668502 -94.201886 2.094097 -0.374027 -0.310340 0.299450 0.005080 -0.248670 
-2.748730 17.181990 0.250060 -21.650071 64.710308 -22.700881 -16.048896 11.952381 2.023652 13.023809 -1.745733 -26.405665 -2.444376 9.797415 36.219085 -0.459385 6.892806 1.977143 0.521830 0.120180 0.554440 17.766264 -7.290718 6.183455 -20.690094 11.650361 -39.999202 56.376512 -68.345941 70.717002 -3.822438 -15.968070 -0.339234 0.156340 0.131100 0.168010 -3.789488 -2.642709 -9.507277 12.400115 -0.469933 45.592870 1.074683 1.040139 11.230252 3.776971 8.419667 -11.722737 15.832256 -12.736832 35.173776 12.981470 -9.599080 -25.375920 -6.365000 -13.002553 7.545064 -14.959398 8.336637 -8.375666 109.493981 -73.640093 -103.188927 -3.650637 1.801931 0.843110 -0.103940 0.124750 0.082900 -0.777049 12.675294 3.668075 14.391663 26.966414 -7.641741 -124.387431 63.438161 -115.819894 2.217231 -0.940475 -0.319400 0.335210 -0.049140 -0.279640 
